<?xml version="1.0" encoding="utf-8"?>
<!-- Generator: Adobe Illustrator 16.0.0, SVG Export Plug-In . SVG Version: 6.00 Build 0)  -->
<!DOCTYPE svg PUBLIC "-//W3C//DTD SVG 1.1//EN" "http://www.w3.org/Graphics/SVG/1.1/DTD/svg11.dtd">
<svg version="1.1" id="Layer_1" xmlns="http://www.w3.org/2000/svg" xmlns:xlink="http://www.w3.org/1999/xlink" x="0px" y="0px"
	 width="156.433px" height="36.796px" viewBox="0 0 156.433 36.796" enable-background="new 0 0 156.433 36.796"
	 xml:space="preserve">
<g>
	<g>
		<path fill="#E5006D" d="M44.58,3.474v2.729h0.068c0.293-0.007,0.516-0.052,0.669-0.137s0.296-0.22,0.43-0.405
			s0.267-0.435,0.4-0.747c0.186-0.42,0.359-0.723,0.52-0.908s0.353-0.32,0.576-0.405s0.505-0.127,0.847-0.127
			c0.127,0,0.236,0.007,0.327,0.02v1.05c-0.267,0-0.463,0.023-0.588,0.07c-0.125,0.048-0.234,0.13-0.327,0.247
			s-0.208,0.335-0.344,0.654C46.9,6.13,46.563,6.518,46.147,6.677c0.319,0.134,0.608,0.347,0.867,0.64s0.533,0.713,0.823,1.26
			l0.923,1.719h-1.46l-0.84-1.602c-0.202-0.378-0.392-0.672-0.569-0.884s-0.361-0.365-0.552-0.462
			c-0.19-0.096-0.443-0.144-0.759-0.144v3.091h-1.299V3.474H44.58z"/>
		<path fill="#E5006D" d="M53.522,3.474l3.076,6.821h-1.367L52.96,5.046l-2.192,5.249H49.44l3.022-6.821H53.522z"/>
		<path fill="#E5006D" d="M59.149,3.474v4.771l4.229-4.771h0.698v6.821h-1.299v-4.6l-4.238,4.648H57.86v-6.87H59.149z"/>
		<path fill="#E5006D" d="M67.398,3.474v2.871h3.54V3.474h1.318v6.821h-1.318V7.415h-3.54v2.881H66.08V3.474H67.398z"/>
		<path fill="#E5006D" d="M75.549,3.474v4.771l4.229-4.771h0.698v6.821h-1.299v-4.6l-4.238,4.648H74.26v-6.87H75.549z"/>
		<path fill="#E5006D" d="M83.779,3.474v2.729h0.068c0.293-0.007,0.516-0.052,0.669-0.137s0.296-0.22,0.43-0.405
			s0.267-0.435,0.4-0.747c0.186-0.42,0.358-0.723,0.521-0.908c0.16-0.186,0.353-0.32,0.576-0.405
			c0.223-0.085,0.505-0.127,0.847-0.127c0.127,0,0.236,0.007,0.327,0.02v1.05c-0.267,0-0.463,0.023-0.588,0.07
			c-0.126,0.048-0.234,0.13-0.328,0.247c-0.092,0.117-0.207,0.335-0.344,0.654C86.1,6.13,85.763,6.518,85.346,6.677
			c0.319,0.134,0.608,0.347,0.866,0.64c0.26,0.293,0.533,0.713,0.823,1.26l0.923,1.719h-1.46l-0.84-1.602
			c-0.202-0.378-0.392-0.672-0.569-0.884c-0.177-0.212-0.361-0.365-0.551-0.462c-0.191-0.096-0.443-0.144-0.76-0.144v3.091H82.48
			V3.474H83.779z"/>
		<path fill="#E5006D" d="M92.838,3.474l3.013,6.821h-1.392l-0.708-1.66h-3.032l-0.659,1.66h-1.382l2.812-6.821H92.838z
			 M91.12,7.634h2.202l-1.152-2.7L91.12,7.634z"/>
		<path fill="#E5006D" d="M46.777,15.386c0.707,0,1.342,0.146,1.907,0.437c0.565,0.292,1.015,0.712,1.35,1.26
			c0.335,0.549,0.503,1.15,0.503,1.805c0,0.638-0.164,1.229-0.491,1.775c-0.327,0.545-0.776,0.968-1.348,1.27
			c-0.571,0.301-1.215,0.451-1.931,0.451c-0.707,0-1.349-0.153-1.926-0.459s-1.028-0.727-1.35-1.262
			c-0.322-0.536-0.483-1.128-0.483-1.775c0-0.625,0.161-1.213,0.483-1.763s0.767-0.978,1.333-1.282
			C45.39,15.539,46.041,15.386,46.777,15.386z M44.37,18.887c0,0.452,0.103,0.859,0.308,1.221s0.491,0.642,0.857,0.84
			s0.78,0.298,1.243,0.298c0.7,0,1.275-0.22,1.726-0.659s0.676-1.006,0.676-1.699c0-0.452-0.102-0.86-0.305-1.223
			c-0.204-0.363-0.49-0.645-0.859-0.843s-0.785-0.298-1.248-0.298s-0.878,0.1-1.248,0.301c-0.37,0.199-0.653,0.479-0.852,0.84
			C44.469,18.024,44.37,18.431,44.37,18.887z"/>
		<path fill="#E5006D" d="M54.411,15.386c0.709,0,1.264,0.161,1.663,0.483s0.598,0.769,0.598,1.338c0,0.342-0.102,0.651-0.305,0.928
			s-0.482,0.477-0.837,0.601c0.807,0.319,1.211,0.862,1.211,1.631c0,0.618-0.233,1.109-0.698,1.472
			c-0.465,0.363-1.092,0.545-1.88,0.545c-0.736,0-1.419-0.125-2.051-0.376v-1.25c0.589,0.325,1.232,0.488,1.929,0.488
			c0.42,0,0.752-0.076,0.996-0.229s0.366-0.391,0.366-0.713c0-0.618-0.537-0.928-1.611-0.928H53v-1.05h0.942
			c0.433,0,0.779-0.092,1.038-0.276c0.259-0.184,0.388-0.415,0.388-0.695c0-0.554-0.443-0.83-1.328-0.83
			c-0.277,0-0.587,0.037-0.93,0.109c-0.343,0.074-0.657,0.177-0.94,0.311v-1.128C52.882,15.53,53.629,15.386,54.411,15.386z"/>
		<path fill="#E5006D" d="M61.991,15.474l2.329,5.723h0.781v2.349h-1.299v-1.25h-4.741v1.25h-1.299v-2.349h0.776l2.183-5.723H61.991
			z M59.872,21.197h3.11l-1.621-4.199L59.872,21.197z"/>
		<path fill="#E5006D" d="M69.703,15.386c0.707,0,1.342,0.146,1.906,0.437c0.565,0.292,1.016,0.712,1.351,1.26
			c0.335,0.549,0.503,1.15,0.503,1.805c0,0.638-0.164,1.229-0.49,1.775c-0.328,0.545-0.777,0.968-1.348,1.27
			c-0.572,0.301-1.215,0.451-1.932,0.451c-0.707,0-1.349-0.153-1.926-0.459c-0.578-0.306-1.028-0.727-1.351-1.262
			c-0.322-0.536-0.483-1.128-0.483-1.775c0-0.625,0.161-1.213,0.483-1.763s0.767-0.978,1.333-1.282
			C68.316,15.539,68.966,15.386,69.703,15.386z M67.295,18.887c0,0.452,0.103,0.859,0.308,1.221s0.49,0.642,0.857,0.84
			c0.365,0.198,0.779,0.298,1.242,0.298c0.699,0,1.275-0.22,1.727-0.659c0.45-0.439,0.676-1.006,0.676-1.699
			c0-0.452-0.102-0.86-0.305-1.223c-0.204-0.363-0.49-0.645-0.859-0.843c-0.37-0.198-0.785-0.298-1.248-0.298
			s-0.878,0.1-1.248,0.301c-0.369,0.199-0.652,0.479-0.852,0.84C67.394,18.024,67.295,18.431,67.295,18.887z"/>
		<path fill="#E5006D" d="M77.834,15.474c0.638,0,1.156,0.185,1.556,0.554c0.398,0.37,0.598,0.846,0.598,1.429
			c0,0.589-0.201,1.066-0.605,1.431s-0.936,0.547-1.597,0.547h-1.27v2.861h-1.318v-6.821H77.834z M77.507,18.404
			c0.352,0,0.626-0.081,0.822-0.241c0.197-0.162,0.296-0.4,0.296-0.716c0-0.628-0.403-0.942-1.211-0.942h-0.898v1.899H77.507z"/>
		<path fill="#E5006D" d="M85.034,15.386c0.706,0,1.342,0.146,1.906,0.437c0.565,0.292,1.016,0.712,1.351,1.26
			c0.335,0.549,0.503,1.15,0.503,1.805c0,0.638-0.164,1.229-0.49,1.775c-0.328,0.545-0.777,0.968-1.348,1.27
			c-0.572,0.301-1.216,0.451-1.932,0.451c-0.706,0-1.349-0.153-1.927-0.459c-0.577-0.306-1.027-0.727-1.35-1.262
			c-0.322-0.536-0.483-1.128-0.483-1.775c0-0.625,0.161-1.213,0.483-1.763s0.767-0.978,1.333-1.282
			C83.647,15.539,84.298,15.386,85.034,15.386z M82.626,18.887c0,0.452,0.103,0.859,0.308,1.221s0.491,0.642,0.856,0.84
			c0.367,0.198,0.781,0.298,1.243,0.298c0.7,0,1.275-0.22,1.727-0.659c0.45-0.439,0.676-1.006,0.676-1.699
			c0-0.452-0.102-0.86-0.305-1.223c-0.204-0.363-0.49-0.645-0.859-0.843c-0.37-0.198-0.786-0.298-1.248-0.298
			s-0.878,0.1-1.247,0.301c-0.37,0.199-0.654,0.479-0.853,0.84C82.726,18.024,82.626,18.431,82.626,18.887z"/>
		<path fill="#E5006D" d="M93.029,15.474c0.625,0,1.135,0.163,1.528,0.488s0.591,0.732,0.591,1.221c0,0.312-0.082,0.588-0.246,0.825
			c-0.165,0.237-0.403,0.427-0.716,0.566v0.059c0.476,0.107,0.846,0.32,1.11,0.637c0.266,0.318,0.398,0.689,0.398,1.116
			c0,0.378-0.097,0.716-0.291,1.013c-0.193,0.299-0.462,0.522-0.805,0.672c-0.344,0.149-0.748,0.225-1.214,0.225h-2.856v-6.821
			H93.029z M92.677,18.306c0.349,0,0.623-0.083,0.825-0.249s0.303-0.397,0.303-0.693c0-0.264-0.093-0.473-0.278-0.627
			c-0.186-0.155-0.43-0.232-0.732-0.232h-0.947v1.802H92.677z M92.985,21.265c0.446,0,0.783-0.084,1.011-0.251
			c0.228-0.168,0.342-0.415,0.342-0.74c0-0.29-0.113-0.519-0.34-0.686c-0.226-0.168-0.529-0.252-0.91-0.252h-1.24v1.929H92.985z"/>
		<path fill="#E5006D" d="M98.597,15.474v4.771l4.229-4.771h0.698v6.821h-1.299v-4.6l-4.238,4.648h-0.679v-6.87H98.597z"/>
		<path fill="#E5006D" d="M111.187,15.474v1.03h-2.422v5.791h-1.318v-5.791h-2.422v-1.03H111.187z"/>
		<path fill="#E5006D" d="M117.097,15.474v1.03h-3.091v1.792h2.959v1.03h-2.959v1.938h3.159v1.03h-4.478v-6.821H117.097z"/>
		<path fill="#E5006D" d="M122.236,15.474l3.076,6.821h-1.367l-2.271-5.249l-2.192,5.249h-1.328l3.022-6.821H122.236z"/>
		<path fill="#E5006D" d="M127.892,15.474v2.661h1.099c0.765,0,1.376,0.188,1.833,0.564c0.458,0.375,0.687,0.884,0.687,1.525
			c0,0.632-0.224,1.135-0.671,1.509c-0.448,0.374-1.043,0.562-1.785,0.562h-2.48v-6.821H127.892z M129.074,21.265
			c0.332,0,0.595-0.097,0.789-0.29c0.193-0.194,0.29-0.444,0.29-0.75c0-0.315-0.101-0.573-0.3-0.771
			c-0.201-0.198-0.467-0.298-0.799-0.298h-1.162v2.109H129.074z"/>
		<path fill="#E5006D" d="M134.364,15.474v2.871h3.54v-2.871h1.318v6.821h-1.318v-2.881h-3.54v2.881h-1.318v-6.821H134.364z"/>
		<path fill="#E5006D" d="M144.722,15.386c0.706,0,1.342,0.146,1.906,0.437c0.565,0.292,1.016,0.712,1.351,1.26
			c0.335,0.549,0.503,1.15,0.503,1.805c0,0.638-0.164,1.229-0.49,1.775c-0.328,0.545-0.777,0.968-1.348,1.27
			c-0.572,0.301-1.216,0.451-1.932,0.451c-0.706,0-1.349-0.153-1.926-0.459c-0.578-0.306-1.028-0.727-1.351-1.262
			c-0.322-0.536-0.483-1.128-0.483-1.775c0-0.625,0.161-1.213,0.483-1.763s0.767-0.978,1.333-1.282
			C143.335,15.539,143.987,15.386,144.722,15.386z M142.315,18.887c0,0.452,0.103,0.859,0.308,1.221s0.49,0.642,0.857,0.84
			c0.365,0.198,0.78,0.298,1.242,0.298c0.7,0,1.275-0.22,1.727-0.659c0.45-0.439,0.676-1.006,0.676-1.699
			c0-0.452-0.102-0.86-0.305-1.223c-0.204-0.363-0.49-0.645-0.859-0.843c-0.37-0.198-0.786-0.298-1.248-0.298
			s-0.878,0.1-1.248,0.301c-0.369,0.199-0.653,0.479-0.852,0.84C142.415,18.024,142.315,18.431,142.315,18.887z"/>
		<path fill="#E5006D" d="M151.506,15.474v4.771l4.229-4.771h0.698v6.821h-1.299v-4.6l-4.238,4.648h-0.679v-6.87H151.506z
			 M152.385,13.404c0.124,0.449,0.441,0.674,0.952,0.674c0.469,0,0.778-0.225,0.928-0.674h0.933
			c-0.078,0.479-0.289,0.865-0.633,1.159c-0.343,0.295-0.756,0.442-1.237,0.442c-0.479,0-0.896-0.155-1.253-0.466
			c-0.355-0.312-0.562-0.689-0.617-1.136H152.385z"/>
		<path fill="#E5006D" d="M44.467,27.474l2.241,2.69l2.241-2.69h1.177v6.822h-1.318v-4.79h-0.039l-1.973,2.401h-0.186l-1.973-2.401
			h-0.039v4.79h-1.318v-6.822H44.467z"/>
		<path fill="#E5006D" d="M56.54,27.474v1.03h-3.091v1.792h2.959v1.03h-2.959v1.938h3.159v1.031H52.13v-6.822H56.54z"/>
		<path fill="#E5006D" d="M61.966,27.474l2.329,5.722h0.781v2.35h-1.299v-1.25h-4.741v1.25h-1.299v-2.35h0.776l2.183-5.722H61.966z
			 M59.847,33.196h3.11l-1.621-4.199L59.847,33.196z"/>
		<path fill="#E5006D" d="M67.769,27.474v4.771l4.229-4.771h0.698v6.822h-1.299v-4.601l-4.238,4.649H66.48v-6.871H67.769z"/>
		<path fill="#E5006D" d="M76.018,27.474v5.722h3.491v-5.722h1.318v5.722h1.069v2.35h-1.299v-1.25H74.7v-6.822H76.018z"/>
		<path fill="#E5006D" d="M84.677,27.474v4.771l4.229-4.771h0.698v6.822h-1.299v-4.601l-4.238,4.649h-0.679v-6.871H84.677z"/>
		<path fill="#E5006D" d="M92.926,27.474v2.872h3.54v-2.872h1.318v6.822h-1.318v-2.881h-3.54v2.881h-1.318v-6.822H92.926z"/>
		<path fill="#E5006D" d="M101.107,27.474v2.661h1.099c0.765,0,1.376,0.188,1.833,0.564c0.458,0.375,0.687,0.884,0.687,1.526
			c0,0.631-0.224,1.135-0.671,1.508c-0.448,0.375-1.043,0.562-1.785,0.562h-2.48v-6.822H101.107z M102.289,33.265
			c0.332,0,0.595-0.096,0.789-0.289c0.193-0.195,0.29-0.445,0.29-0.75c0-0.316-0.101-0.574-0.3-0.771
			c-0.201-0.198-0.467-0.298-0.799-0.298h-1.162v2.108H102.289z M107.118,27.474v6.822h-1.323v-6.822H107.118z"/>
	</g>
	<g>
		<path fill="#8D0042" d="M18.11,15.301c-0.396-0.713-0.496-1.342-0.314-1.98c0.498-1.805,2.948-3.018,4.924-3.018
			c0.875,0,1.629,0.225,2.183,0.65c0.546,0.421,0.865,0.983,0.899,1.583c0.034,0.596-0.218,1.188-0.709,1.666
			c-0.735,0.71-1.584,0.884-2.545,0.521c-0.623-0.233-1.208,0.023-1.513,0.65c-0.206,0.43,0.051,0.667,0.644,1.071l0.105,0.072
			c0.409,0.279,0.909,0.41,1.57,0.41l0.064,0c1.935-0.018,4.17-1.622,4.882-3.501c0.567-1.482,0.301-2.769-0.813-3.933
			c-1.016-1.062-2.457-1.672-3.955-1.672c-0.95,0-1.882,0.247-2.697,0.712c-1.244,0.71-2.809,1.731-3.888,3.341
			c-0.509,0.763-1.121,1.154-1.869,1.194c-0.065,0.003-0.128,0.005-0.189,0.005c-0.279,0-0.676-0.034-0.904-0.327
			c-0.177-0.227-0.208-0.551-0.097-0.989c0.141-0.558,0.201-1.085,0.179-1.569c-0.094-2.232-1.818-3.859-4.101-3.87
			c-2.273,0-4.461,1.854-4.607,3.889c-0.012,0.146-0.018,0.254-0.01,0.338c0.8-1.206,2.31-1.993,3.883-1.993
			c0.733,0,1.443,0.173,2.052,0.5c0.533,0.285,0.893,0.727,1.013,1.244c0.121,0.519-0.01,1.077-0.366,1.571
			c-0.458,0.631-1.108,0.992-1.733,1.308c-0.195,0.099-0.399,0.181-0.603,0.263c-0.251,0.102-0.489,0.197-0.708,0.323
			c-0.225,0.131-0.382,0.379-0.439,0.696c-0.077,0.424,0.042,0.892,0.31,1.219c0.137,0.168,0.263,0.26,0.355,0.26
			c0.128,0,0.288-0.167,0.443-0.328c0.083-0.086,0.166-0.172,0.25-0.244c0.755-0.643,1.464-1.047,2.233-1.271
			c0.373-0.107,0.76-0.162,1.153-0.162c1.675,0,3.15,0.979,3.507,2.327c0.25,0.943,0.1,1.925-0.426,2.765
			c-0.561,0.896-1.501,1.532-2.581,1.743c-2.199,0.437-4.28-0.147-6.173-1.733C5.396,17.257,4,14.879,3.375,11.965
			C2.647,8.561,3.599,5.751,6.126,3.839c2.838-2.152,5.722-2.335,8.455-0.535c0.365,0.242,0.765,0.14,1.007-0.25
			c0.166-0.267,0.084-0.443-0.362-0.782c-1.252-0.96-3.062-1.71-4.174-1.914c-0.464-0.085-1.482-0.195-2.869,0
			C7.458,0.461,6.025,0.747,5.1,1.32C1.48,3.573-0.046,6.282,0.297,9.844c0.048,5.879,5.119,12.209,10.851,13.568
			c2.804,0.663,4.917,0.063,6.519-1.844C19.231,19.705,19.38,17.596,18.11,15.301z"/>
		<path fill="#8D0042" d="M19.452,3.107c0.244,0.415,0.668,0.491,1.095,0.219c0.782-0.503,1.637-0.748,2.61-0.748
			c0.482,0,0.994,0.06,1.565,0.182c2.402,0.519,4.349,1.902,5.483,3.897c1.125,1.977,1.32,4.331,0.549,6.627
			c-0.943,2.821-2.763,4.966-4.418,6.692c-1.714,1.784-3.692,3.298-5.605,4.763c-0.368,0.281-0.735,0.562-1.101,0.846
			c-1.463,1.139-2.968,2.395-3.882,4.12c-0.389,0.729-0.458,1.487-0.193,2.135c0.256,0.629,0.807,1.104,1.551,1.339
			c0.648,0.202,1.434-0.036,1.934-0.577c0.347-0.376,0.517-0.84,0.479-1.306c-0.072-0.937-0.657-1.298-1.864-1.251
			c-0.088,0.004-0.173-0.04-0.221-0.115c-0.048-0.075-0.052-0.17-0.011-0.25c0.648-1.249,1.62-1.93,2.729-2.631
			c0.517-0.329,1.037-0.654,1.557-0.979c1.959-1.226,3.985-2.494,5.831-3.955c2.289-1.815,5.092-4.38,6.47-8.143
			c1.899-5.172,0.126-10.101-4.516-12.556c-0.507-0.268-0.903-0.373-1.609-0.61c-1.601-0.539-3.492-0.291-3.731-0.273
			c-1.458,0.169-2.829,0.736-4.227,1.743C19.394,2.657,19.277,2.805,19.452,3.107z"/>
		<path fill="#8D0042" d="M17.117,8.134c1.677,0.189,3.2-0.768,3.493-2.045c-3.151,0.971-3.762,0.814-6.486-1.27
			c-0.071,0.752,0.104,1.439,0.515,2.006C15.164,7.547,16.043,8.013,17.117,8.134z"/>
		<path fill="#8D0042" d="M17.536,5.375c0.663-0.132,0.975-0.471,0.954-1.038c-0.016-0.617-0.372-0.969-0.977-0.969
			C16.839,3.389,16.5,3.75,16.517,4.385C16.531,4.981,16.837,5.279,17.536,5.375z"/>
		<path fill="#8D0042" d="M18.121,35.804c0.001-0.616-0.317-0.928-1.033-1.009c-0.6,0.085-0.935,0.429-0.935,1.022
			c0,0.622,0.362,0.979,0.992,0.979h0.004C17.785,36.796,18.121,36.453,18.121,35.804z"/>
	</g>
	<g>
		<path fill="#E5006D" d="M17.86,15.051c-0.396-0.713-0.496-1.342-0.314-1.98c0.498-1.805,2.948-3.018,4.924-3.018
			c0.875,0,1.629,0.225,2.183,0.65c0.546,0.421,0.865,0.983,0.899,1.583c0.034,0.596-0.218,1.188-0.709,1.666
			c-0.735,0.71-1.584,0.884-2.545,0.521c-0.623-0.233-1.208,0.023-1.513,0.65c-0.206,0.43,0.051,0.667,0.644,1.071l0.105,0.072
			c0.409,0.279,0.909,0.41,1.57,0.41l0.064,0c1.935-0.018,4.17-1.622,4.882-3.501c0.567-1.482,0.301-2.769-0.813-3.933
			c-1.016-1.062-2.457-1.672-3.955-1.672c-0.95,0-1.882,0.247-2.697,0.712c-1.244,0.71-2.809,1.731-3.888,3.341
			c-0.509,0.763-1.121,1.154-1.869,1.194c-0.065,0.003-0.128,0.005-0.189,0.005c-0.279,0-0.676-0.034-0.904-0.327
			c-0.177-0.227-0.208-0.551-0.097-0.989c0.141-0.558,0.201-1.085,0.179-1.569C13.724,7.704,12,6.077,9.717,6.066
			c-2.273,0-4.461,1.854-4.607,3.889c-0.012,0.146-0.018,0.254-0.01,0.338C5.901,9.088,7.41,8.3,8.983,8.3
			c0.733,0,1.443,0.173,2.052,0.5c0.533,0.285,0.893,0.727,1.013,1.244c0.121,0.519-0.01,1.077-0.366,1.571
			c-0.458,0.631-1.108,0.992-1.733,1.308c-0.195,0.099-0.399,0.181-0.603,0.263c-0.251,0.102-0.489,0.197-0.708,0.323
			c-0.225,0.131-0.382,0.379-0.439,0.696c-0.077,0.424,0.042,0.892,0.31,1.219c0.137,0.168,0.263,0.26,0.355,0.26
			c0.128,0,0.288-0.167,0.443-0.328c0.083-0.086,0.166-0.172,0.25-0.244c0.755-0.643,1.464-1.047,2.233-1.271
			c0.373-0.107,0.76-0.162,1.153-0.162c1.675,0,3.15,0.979,3.507,2.327c0.25,0.943,0.1,1.925-0.426,2.765
			c-0.561,0.896-1.501,1.532-2.581,1.743c-2.199,0.437-4.28-0.147-6.173-1.733c-2.126-1.776-3.521-4.154-4.147-7.068
			C2.397,8.311,3.349,5.501,5.876,3.589c2.838-2.152,5.722-2.335,8.455-0.535c0.365,0.242,0.765,0.14,1.007-0.25
			c0.166-0.267,0.084-0.443-0.362-0.782c-1.252-0.96-3.062-1.71-4.174-1.914c-0.464-0.085-1.482-0.195-2.869,0
			C7.208,0.211,5.775,0.497,4.85,1.07C1.23,3.323-0.296,6.032,0.047,9.594c0.048,5.879,5.119,12.209,10.851,13.568
			c2.804,0.663,4.917,0.063,6.519-1.844C18.981,19.455,19.13,17.346,17.86,15.051z"/>
		<path fill="#E5006D" d="M19.202,2.857c0.244,0.415,0.668,0.491,1.095,0.219c0.782-0.503,1.637-0.748,2.61-0.748
			c0.482,0,0.994,0.06,1.565,0.182c2.402,0.519,4.349,1.902,5.483,3.897c1.125,1.977,1.32,4.331,0.549,6.627
			c-0.943,2.821-2.763,4.966-4.418,6.692c-1.714,1.784-3.692,3.298-5.605,4.763c-0.368,0.281-0.735,0.562-1.101,0.846
			c-1.463,1.139-2.968,2.395-3.882,4.12c-0.389,0.729-0.458,1.487-0.193,2.135c0.256,0.629,0.807,1.104,1.551,1.339
			c0.648,0.202,1.434-0.036,1.934-0.577c0.347-0.376,0.517-0.84,0.479-1.306c-0.072-0.936-0.657-1.298-1.864-1.25
			c-0.088,0.003-0.173-0.041-0.221-0.116c-0.048-0.075-0.052-0.17-0.011-0.25c0.648-1.249,1.62-1.93,2.729-2.631
			c0.517-0.329,1.037-0.654,1.557-0.979c1.959-1.226,3.985-2.494,5.831-3.955c2.289-1.815,5.092-4.38,6.47-8.143
			c1.899-5.172,0.126-10.101-4.516-12.556c-0.507-0.268-0.903-0.373-1.609-0.61c-1.601-0.539-3.492-0.291-3.731-0.273
			c-1.458,0.169-2.829,0.736-4.227,1.743C19.144,2.407,19.027,2.555,19.202,2.857z"/>
		<path fill="#E5006D" d="M16.867,7.884c1.677,0.189,3.2-0.768,3.493-2.045c-3.151,0.971-3.762,0.814-6.486-1.27
			c-0.071,0.752,0.104,1.439,0.515,2.006C14.914,7.297,15.793,7.763,16.867,7.884z"/>
		<path fill="#E5006D" d="M17.286,5.125c0.663-0.132,0.975-0.471,0.954-1.038c-0.016-0.617-0.372-0.969-0.977-0.969
			C16.589,3.139,16.25,3.5,16.267,4.135C16.281,4.731,16.587,5.029,17.286,5.125z"/>
		<path fill="#E5006D" d="M17.871,35.554c0.001-0.616-0.317-0.928-1.033-1.009c-0.6,0.085-0.935,0.429-0.935,1.022
			c0,0.622,0.362,0.979,0.992,0.979h0.004C17.535,36.546,17.871,36.203,17.871,35.554z"/>
	</g>
</g>
</svg>
